<?xml version="1.0" standalone="no"?>
<!DOCTYPE svg PUBLIC "-//W3C//DTD SVG 20010904//EN"
 "http://www.w3.org/TR/2001/REC-SVG-20010904/DTD/svg10.dtd">
<svg version="1.0" xmlns="http://www.w3.org/2000/svg"
 width="400.000000pt" height="400.000000pt" viewBox="0 0 400.000000 400.000000"
 preserveAspectRatio="xMidYMid meet">
<metadata>
Created by potrace 1.11, written by Peter Selinger 2001-2013
</metadata>
<g transform="translate(0.000000,400.000000) scale(0.100000,-0.100000)"
fill="#000000" stroke="none">
<path d="M3847 3338 c-14 -24 -78 -135 -143 -248 -65 -113 -124 -217 -131
-231 -17 -33 -135 -79 -557 -218 -357 -118 -425 -144 -638 -253 -140 -71 -368
-210 -408 -249 -8 -8 -38 -32 -65 -54 -28 -22 -61 -50 -75 -63 l-25 -23 -43
48 c-258 285 -458 443 -757 595 -180 92 -429 192 -620 249 -101 30 -297 75
-325 74 -30 0 -51 -150 -55 -381 -2 -116 0 -230 5 -255 4 -24 11 -66 14 -94 3
-27 8 -59 10 -70 2 -11 12 -56 21 -100 56 -267 200 -572 372 -787 250 -313
670 -565 1039 -624 21 -3 41 -7 45 -9 16 -10 173 -20 314 -20 145 0 236 6 320
20 28 5 42 8 100 19 11 3 40 9 65 16 118 29 220 63 220 72 0 5 -6 8 -12 7 -66
-13 -470 71 -583 121 -11 4 -56 23 -100 40 -391 158 -781 484 -1095 915 -112
155 -282 425 -267 425 3 0 17 -19 33 -42 16 -24 31 -45 34 -48 3 -3 30 -36 60
-75 30 -38 65 -81 76 -95 374 -442 738 -748 1114 -936 307 -153 556 -214 861
-210 127 2 139 4 188 30 129 67 332 215 425 310 118 120 246 286 306 398 37
70 93 213 104 271 20 100 26 132 33 198 10 96 10 382 0 479 l-8 75 -157 -155
c-355 -353 -804 -654 -1279 -858 -86 -38 -93 -39 -107 -23 -15 16 -9 21 77 66
352 185 709 429 986 673 303 267 436 434 669 837 99 172 112 195 112 199 0 3
-19 7 -42 11 -24 4 -53 9 -65 11 -17 3 -27 -5 -46 -38z"/>
</g>
</svg>
